<mxfile host="app.diagrams.net" modified="2023-09-05T14:54:46.715Z" agent="Mozilla/5.0 (X11; Linux x86_64) AppleWebKit/537.36 (KHTML, like Gecko) Chrome/116.0.0.0 Safari/537.36" etag="uV0RtiXJjOTRRi1rXM3O" version="21.7.2" type="device">
  <diagram name="Page-1" id="ZnIfdwG3o-K19pjhtGg5">
    <mxGraphModel dx="1687" dy="976" grid="1" gridSize="10" guides="1" tooltips="1" connect="1" arrows="1" fold="1" page="1" pageScale="1" pageWidth="1654" pageHeight="2336" math="0" shadow="0">
      <root>
        <mxCell id="0" />
        <mxCell id="1" parent="0" />
        <mxCell id="mokg5MB76KwbFTRGkMZ4-64" value="" style="rounded=0;whiteSpace=wrap;html=1;fillColor=none;fontColor=#333333;strokeColor=#666666;dashed=1;strokeWidth=2;" vertex="1" parent="1">
          <mxGeometry x="100" y="390" width="1490" height="690" as="geometry" />
        </mxCell>
        <mxCell id="mokg5MB76KwbFTRGkMZ4-5" value="Dados" style="text;html=1;align=left;verticalAlign=middle;resizable=0;points=[];autosize=1;strokeColor=none;fillColor=none;fontSize=24;fontStyle=1" vertex="1" parent="1">
          <mxGeometry x="100" y="330" width="100" height="40" as="geometry" />
        </mxCell>
        <mxCell id="mokg5MB76KwbFTRGkMZ4-47" style="edgeStyle=orthogonalEdgeStyle;rounded=0;orthogonalLoop=1;jettySize=auto;html=1;entryX=1;entryY=0.5;entryDx=0;entryDy=0;entryPerimeter=0;exitX=0.5;exitY=0;exitDx=0;exitDy=0;" edge="1" parent="1" source="mokg5MB76KwbFTRGkMZ4-16" target="mokg5MB76KwbFTRGkMZ4-38">
          <mxGeometry relative="1" as="geometry" />
        </mxCell>
        <mxCell id="mokg5MB76KwbFTRGkMZ4-48" value="Consultar schema" style="edgeLabel;html=1;align=center;verticalAlign=middle;resizable=0;points=[];" vertex="1" connectable="0" parent="mokg5MB76KwbFTRGkMZ4-47">
          <mxGeometry x="0.6587" y="5" relative="1" as="geometry">
            <mxPoint x="46" y="-5" as="offset" />
          </mxGeometry>
        </mxCell>
        <mxCell id="mokg5MB76KwbFTRGkMZ4-50" style="edgeStyle=orthogonalEdgeStyle;rounded=0;orthogonalLoop=1;jettySize=auto;html=1;" edge="1" parent="1" source="mokg5MB76KwbFTRGkMZ4-16" target="mokg5MB76KwbFTRGkMZ4-49">
          <mxGeometry relative="1" as="geometry" />
        </mxCell>
        <mxCell id="mokg5MB76KwbFTRGkMZ4-16" value="Validar estrutura" style="whiteSpace=wrap;html=1;fillColor=#ffe6cc;strokeColor=#d79b00;" vertex="1" parent="1">
          <mxGeometry x="430" y="586.25" width="160" height="80" as="geometry" />
        </mxCell>
        <mxCell id="mokg5MB76KwbFTRGkMZ4-62" value="" style="edgeStyle=orthogonalEdgeStyle;rounded=0;orthogonalLoop=1;jettySize=auto;html=1;" edge="1" parent="1" source="mokg5MB76KwbFTRGkMZ4-25" target="mokg5MB76KwbFTRGkMZ4-61">
          <mxGeometry relative="1" as="geometry" />
        </mxCell>
        <mxCell id="mokg5MB76KwbFTRGkMZ4-25" value="Padronizar dados" style="whiteSpace=wrap;html=1;fillColor=#ffe6cc;strokeColor=#d79b00;" vertex="1" parent="1">
          <mxGeometry x="900" y="586.25" width="160" height="80" as="geometry" />
        </mxCell>
        <mxCell id="mokg5MB76KwbFTRGkMZ4-38" value="AVRO" style="whiteSpace=wrap;html=1;shape=mxgraph.basic.document;fillColor=#f5f5f5;fontColor=#333333;strokeColor=#666666;" vertex="1" parent="1">
          <mxGeometry x="248.75" y="442.5" width="75" height="75" as="geometry" />
        </mxCell>
        <mxCell id="mokg5MB76KwbFTRGkMZ4-46" style="edgeStyle=orthogonalEdgeStyle;rounded=0;orthogonalLoop=1;jettySize=auto;html=1;" edge="1" parent="1" source="mokg5MB76KwbFTRGkMZ4-44" target="mokg5MB76KwbFTRGkMZ4-16">
          <mxGeometry relative="1" as="geometry" />
        </mxCell>
        <mxCell id="mokg5MB76KwbFTRGkMZ4-55" style="edgeStyle=orthogonalEdgeStyle;rounded=0;orthogonalLoop=1;jettySize=auto;html=1;" edge="1" parent="1" source="mokg5MB76KwbFTRGkMZ4-44" target="mokg5MB76KwbFTRGkMZ4-53">
          <mxGeometry relative="1" as="geometry" />
        </mxCell>
        <mxCell id="mokg5MB76KwbFTRGkMZ4-123" style="edgeStyle=orthogonalEdgeStyle;rounded=0;orthogonalLoop=1;jettySize=auto;html=1;" edge="1" parent="1" source="mokg5MB76KwbFTRGkMZ4-44" target="mokg5MB76KwbFTRGkMZ4-122">
          <mxGeometry relative="1" as="geometry" />
        </mxCell>
        <mxCell id="mokg5MB76KwbFTRGkMZ4-44" value="Trigger" style="ellipse;whiteSpace=wrap;html=1;fillColor=#d5e8d4;strokeColor=#82b366;" vertex="1" parent="1">
          <mxGeometry x="251.25" y="590" width="72.5" height="72.5" as="geometry" />
        </mxCell>
        <mxCell id="mokg5MB76KwbFTRGkMZ4-56" style="edgeStyle=orthogonalEdgeStyle;rounded=0;orthogonalLoop=1;jettySize=auto;html=1;" edge="1" parent="1" source="mokg5MB76KwbFTRGkMZ4-49" target="mokg5MB76KwbFTRGkMZ4-25">
          <mxGeometry relative="1" as="geometry" />
        </mxCell>
        <mxCell id="mokg5MB76KwbFTRGkMZ4-57" value="SIM" style="edgeLabel;html=1;align=center;verticalAlign=middle;resizable=0;points=[];" vertex="1" connectable="0" parent="mokg5MB76KwbFTRGkMZ4-56">
          <mxGeometry x="-0.22" y="-1" relative="1" as="geometry">
            <mxPoint x="7" y="-1" as="offset" />
          </mxGeometry>
        </mxCell>
        <mxCell id="mokg5MB76KwbFTRGkMZ4-59" style="edgeStyle=orthogonalEdgeStyle;rounded=0;orthogonalLoop=1;jettySize=auto;html=1;entryX=0;entryY=0.5;entryDx=0;entryDy=0;exitX=0.5;exitY=0;exitDx=0;exitDy=0;exitPerimeter=0;" edge="1" parent="1" source="mokg5MB76KwbFTRGkMZ4-49" target="mokg5MB76KwbFTRGkMZ4-58">
          <mxGeometry relative="1" as="geometry" />
        </mxCell>
        <mxCell id="mokg5MB76KwbFTRGkMZ4-60" value="NÃO" style="edgeLabel;html=1;align=center;verticalAlign=middle;resizable=0;points=[];" vertex="1" connectable="0" parent="mokg5MB76KwbFTRGkMZ4-59">
          <mxGeometry x="0.0826" y="2" relative="1" as="geometry">
            <mxPoint x="71" y="2" as="offset" />
          </mxGeometry>
        </mxCell>
        <mxCell id="mokg5MB76KwbFTRGkMZ4-49" value="Está valido?" style="strokeWidth=2;html=1;shape=mxgraph.flowchart.decision;whiteSpace=wrap;fillColor=#fff2cc;strokeColor=#d6b656;" vertex="1" parent="1">
          <mxGeometry x="690" y="576.25" width="100" height="100" as="geometry" />
        </mxCell>
        <mxCell id="mokg5MB76KwbFTRGkMZ4-53" value="Fonte de dados" style="shape=parallelogram;perimeter=parallelogramPerimeter;whiteSpace=wrap;html=1;fixedSize=1;fillColor=#e1d5e7;strokeColor=#9673a6;" vertex="1" parent="1">
          <mxGeometry x="40" y="596.25" width="120" height="60" as="geometry" />
        </mxCell>
        <mxCell id="mokg5MB76KwbFTRGkMZ4-58" value="Notificar erro" style="whiteSpace=wrap;html=1;fillColor=#ffe6cc;strokeColor=#d79b00;" vertex="1" parent="1">
          <mxGeometry x="900" y="410" width="160" height="80" as="geometry" />
        </mxCell>
        <mxCell id="mokg5MB76KwbFTRGkMZ4-85" style="edgeStyle=orthogonalEdgeStyle;rounded=0;orthogonalLoop=1;jettySize=auto;html=1;entryX=0.5;entryY=0;entryDx=0;entryDy=0;" edge="1" parent="1" source="mokg5MB76KwbFTRGkMZ4-61" target="mokg5MB76KwbFTRGkMZ4-81">
          <mxGeometry relative="1" as="geometry">
            <Array as="points">
              <mxPoint x="1230" y="920" />
              <mxPoint x="1020" y="920" />
            </Array>
          </mxGeometry>
        </mxCell>
        <mxCell id="mokg5MB76KwbFTRGkMZ4-87" style="edgeStyle=orthogonalEdgeStyle;rounded=0;orthogonalLoop=1;jettySize=auto;html=1;" edge="1" parent="1" source="mokg5MB76KwbFTRGkMZ4-61" target="mokg5MB76KwbFTRGkMZ4-69">
          <mxGeometry relative="1" as="geometry">
            <Array as="points">
              <mxPoint x="1230" y="920" />
              <mxPoint x="580" y="920" />
            </Array>
          </mxGeometry>
        </mxCell>
        <mxCell id="mokg5MB76KwbFTRGkMZ4-61" value="Carregar base de dados" style="whiteSpace=wrap;html=1;fillColor=#ffe6cc;strokeColor=#d79b00;" vertex="1" parent="1">
          <mxGeometry x="1150" y="586.25" width="160" height="80" as="geometry" />
        </mxCell>
        <mxCell id="mokg5MB76KwbFTRGkMZ4-66" value="" style="rounded=0;whiteSpace=wrap;html=1;fillColor=none;fontColor=#333333;strokeColor=#666666;dashed=1;strokeWidth=2;" vertex="1" parent="1">
          <mxGeometry x="100" y="1340" width="1490" height="330" as="geometry" />
        </mxCell>
        <mxCell id="mokg5MB76KwbFTRGkMZ4-67" value="Aplicação" style="text;html=1;align=left;verticalAlign=middle;resizable=0;points=[];autosize=1;strokeColor=none;fillColor=none;fontSize=24;fontStyle=1" vertex="1" parent="1">
          <mxGeometry x="100" y="1280" width="140" height="40" as="geometry" />
        </mxCell>
        <mxCell id="mokg5MB76KwbFTRGkMZ4-107" style="edgeStyle=orthogonalEdgeStyle;rounded=0;orthogonalLoop=1;jettySize=auto;html=1;" edge="1" parent="1" source="mokg5MB76KwbFTRGkMZ4-69" target="mokg5MB76KwbFTRGkMZ4-106">
          <mxGeometry relative="1" as="geometry" />
        </mxCell>
        <mxCell id="mokg5MB76KwbFTRGkMZ4-69" value="Base de dados Transacional" style="shape=datastore;whiteSpace=wrap;html=1;fillColor=#e1d5e7;strokeColor=#9673a6;" vertex="1" parent="1">
          <mxGeometry x="520" y="990" width="120" height="135" as="geometry" />
        </mxCell>
        <mxCell id="mokg5MB76KwbFTRGkMZ4-86" style="edgeStyle=orthogonalEdgeStyle;rounded=0;orthogonalLoop=1;jettySize=auto;html=1;entryX=0.5;entryY=1;entryDx=0;entryDy=0;" edge="1" parent="1" source="mokg5MB76KwbFTRGkMZ4-75" target="mokg5MB76KwbFTRGkMZ4-69">
          <mxGeometry relative="1" as="geometry" />
        </mxCell>
        <mxCell id="mokg5MB76KwbFTRGkMZ4-75" value="API" style="whiteSpace=wrap;html=1;fillColor=#dae8fc;strokeColor=#6c8ebf;" vertex="1" parent="1">
          <mxGeometry x="500" y="1390" width="160" height="80" as="geometry" />
        </mxCell>
        <mxCell id="mokg5MB76KwbFTRGkMZ4-118" style="edgeStyle=orthogonalEdgeStyle;rounded=0;orthogonalLoop=1;jettySize=auto;html=1;" edge="1" parent="1" source="mokg5MB76KwbFTRGkMZ4-77" target="mokg5MB76KwbFTRGkMZ4-81">
          <mxGeometry relative="1" as="geometry" />
        </mxCell>
        <mxCell id="mokg5MB76KwbFTRGkMZ4-77" value="BI" style="whiteSpace=wrap;html=1;fillColor=#f8cecc;strokeColor=#b85450;" vertex="1" parent="1">
          <mxGeometry x="940" y="1540" width="160" height="80" as="geometry" />
        </mxCell>
        <mxCell id="mokg5MB76KwbFTRGkMZ4-81" value="Base de dados analítica" style="shape=datastore;whiteSpace=wrap;html=1;fillColor=#e1d5e7;strokeColor=#9673a6;" vertex="1" parent="1">
          <mxGeometry x="960" y="990" width="120" height="135" as="geometry" />
        </mxCell>
        <mxCell id="mokg5MB76KwbFTRGkMZ4-90" style="edgeStyle=orthogonalEdgeStyle;rounded=0;orthogonalLoop=1;jettySize=auto;html=1;" edge="1" parent="1" source="mokg5MB76KwbFTRGkMZ4-88" target="mokg5MB76KwbFTRGkMZ4-75">
          <mxGeometry relative="1" as="geometry" />
        </mxCell>
        <mxCell id="mokg5MB76KwbFTRGkMZ4-88" value="Mobile UI" style="whiteSpace=wrap;html=1;fillColor=#f8cecc;strokeColor=#b85450;" vertex="1" parent="1">
          <mxGeometry x="400" y="1540" width="160" height="80" as="geometry" />
        </mxCell>
        <mxCell id="mokg5MB76KwbFTRGkMZ4-91" style="edgeStyle=orthogonalEdgeStyle;rounded=0;orthogonalLoop=1;jettySize=auto;html=1;" edge="1" parent="1" source="mokg5MB76KwbFTRGkMZ4-89" target="mokg5MB76KwbFTRGkMZ4-75">
          <mxGeometry relative="1" as="geometry" />
        </mxCell>
        <mxCell id="mokg5MB76KwbFTRGkMZ4-89" value="Web UI" style="whiteSpace=wrap;html=1;fillColor=#f8cecc;strokeColor=#b85450;" vertex="1" parent="1">
          <mxGeometry x="600" y="1540" width="160" height="80" as="geometry" />
        </mxCell>
        <mxCell id="mokg5MB76KwbFTRGkMZ4-114" style="edgeStyle=orthogonalEdgeStyle;rounded=0;orthogonalLoop=1;jettySize=auto;html=1;" edge="1" parent="1" source="mokg5MB76KwbFTRGkMZ4-96" target="mokg5MB76KwbFTRGkMZ4-81">
          <mxGeometry relative="1" as="geometry">
            <Array as="points">
              <mxPoint x="1400" y="1058" />
            </Array>
          </mxGeometry>
        </mxCell>
        <mxCell id="mokg5MB76KwbFTRGkMZ4-96" value="Gerar score" style="whiteSpace=wrap;html=1;fillColor=#ffe6cc;strokeColor=#d79b00;" vertex="1" parent="1">
          <mxGeometry x="1320" y="790" width="160" height="80" as="geometry" />
        </mxCell>
        <mxCell id="mokg5MB76KwbFTRGkMZ4-97" value="Horuss" style="text;html=1;align=left;verticalAlign=middle;resizable=0;points=[];autosize=1;strokeColor=none;fillColor=none;fontSize=32;fontStyle=1" vertex="1" parent="1">
          <mxGeometry x="100" y="35" width="130" height="50" as="geometry" />
        </mxCell>
        <mxCell id="mokg5MB76KwbFTRGkMZ4-98" value="" style="whiteSpace=wrap;html=1;aspect=fixed;fillColor=#e1d5e7;strokeColor=#9673a6;" vertex="1" parent="1">
          <mxGeometry x="1350" y="40" width="30" height="30" as="geometry" />
        </mxCell>
        <mxCell id="mokg5MB76KwbFTRGkMZ4-99" value="" style="whiteSpace=wrap;html=1;aspect=fixed;fillColor=#d5e8d4;strokeColor=#82b366;" vertex="1" parent="1">
          <mxGeometry x="1350" y="93" width="30" height="30" as="geometry" />
        </mxCell>
        <mxCell id="mokg5MB76KwbFTRGkMZ4-100" value="" style="whiteSpace=wrap;html=1;aspect=fixed;fillColor=#ffe6cc;strokeColor=#d79b00;" vertex="1" parent="1">
          <mxGeometry x="1350" y="146" width="30" height="30" as="geometry" />
        </mxCell>
        <mxCell id="mokg5MB76KwbFTRGkMZ4-101" value="" style="whiteSpace=wrap;html=1;aspect=fixed;fillColor=#fff2cc;strokeColor=#d6b656;" vertex="1" parent="1">
          <mxGeometry x="1350" y="199" width="30" height="30" as="geometry" />
        </mxCell>
        <mxCell id="mokg5MB76KwbFTRGkMZ4-102" value="" style="whiteSpace=wrap;html=1;aspect=fixed;fillColor=#dae8fc;strokeColor=#6c8ebf;" vertex="1" parent="1">
          <mxGeometry x="1350" y="252" width="30" height="30" as="geometry" />
        </mxCell>
        <mxCell id="mokg5MB76KwbFTRGkMZ4-103" value="" style="whiteSpace=wrap;html=1;aspect=fixed;fillColor=#f8cecc;strokeColor=#b85450;" vertex="1" parent="1">
          <mxGeometry x="1350" y="305" width="30" height="30" as="geometry" />
        </mxCell>
        <mxCell id="mokg5MB76KwbFTRGkMZ4-104" value="Fonte / Base de dados" style="text;html=1;align=left;verticalAlign=middle;resizable=0;points=[];autosize=1;strokeColor=none;fillColor=none;fontSize=16;" vertex="1" parent="1">
          <mxGeometry x="1390" y="40" width="180" height="30" as="geometry" />
        </mxCell>
        <mxCell id="mokg5MB76KwbFTRGkMZ4-105" value="Gatilhos" style="text;html=1;align=left;verticalAlign=middle;resizable=0;points=[];autosize=1;strokeColor=none;fillColor=none;fontSize=16;" vertex="1" parent="1">
          <mxGeometry x="1390" y="93" width="80" height="30" as="geometry" />
        </mxCell>
        <mxCell id="mokg5MB76KwbFTRGkMZ4-108" style="edgeStyle=orthogonalEdgeStyle;rounded=0;orthogonalLoop=1;jettySize=auto;html=1;" edge="1" parent="1" source="mokg5MB76KwbFTRGkMZ4-106" target="mokg5MB76KwbFTRGkMZ4-81">
          <mxGeometry relative="1" as="geometry" />
        </mxCell>
        <mxCell id="mokg5MB76KwbFTRGkMZ4-106" value="Sincronizar (Stream)" style="whiteSpace=wrap;html=1;fillColor=#ffe6cc;strokeColor=#d79b00;" vertex="1" parent="1">
          <mxGeometry x="720" y="1017.5" width="160" height="80" as="geometry" />
        </mxCell>
        <mxCell id="mokg5MB76KwbFTRGkMZ4-109" value="Job step" style="text;html=1;align=left;verticalAlign=middle;resizable=0;points=[];autosize=1;strokeColor=none;fillColor=none;fontSize=16;" vertex="1" parent="1">
          <mxGeometry x="1390" y="150" width="80" height="30" as="geometry" />
        </mxCell>
        <mxCell id="mokg5MB76KwbFTRGkMZ4-110" value="Condicional" style="text;html=1;align=left;verticalAlign=middle;resizable=0;points=[];autosize=1;strokeColor=none;fillColor=none;fontSize=16;" vertex="1" parent="1">
          <mxGeometry x="1390" y="199" width="110" height="30" as="geometry" />
        </mxCell>
        <mxCell id="mokg5MB76KwbFTRGkMZ4-111" value="API" style="text;html=1;align=left;verticalAlign=middle;resizable=0;points=[];autosize=1;strokeColor=none;fillColor=none;fontSize=16;" vertex="1" parent="1">
          <mxGeometry x="1390" y="252" width="50" height="30" as="geometry" />
        </mxCell>
        <mxCell id="mokg5MB76KwbFTRGkMZ4-112" value="UI" style="text;html=1;align=left;verticalAlign=middle;resizable=0;points=[];autosize=1;strokeColor=none;fillColor=none;fontSize=16;" vertex="1" parent="1">
          <mxGeometry x="1390" y="305" width="40" height="30" as="geometry" />
        </mxCell>
        <mxCell id="mokg5MB76KwbFTRGkMZ4-113" value="Blockchain" style="whiteSpace=wrap;html=1;" vertex="1" parent="1">
          <mxGeometry x="100" y="1140" width="1490" height="100" as="geometry" />
        </mxCell>
        <mxCell id="mokg5MB76KwbFTRGkMZ4-127" style="edgeStyle=orthogonalEdgeStyle;rounded=0;orthogonalLoop=1;jettySize=auto;html=1;" edge="1" parent="1" source="mokg5MB76KwbFTRGkMZ4-119" target="mokg5MB76KwbFTRGkMZ4-126">
          <mxGeometry relative="1" as="geometry" />
        </mxCell>
        <mxCell id="mokg5MB76KwbFTRGkMZ4-119" value="Subir arquivo no storage" style="whiteSpace=wrap;html=1;fillColor=#ffe6cc;strokeColor=#d79b00;" vertex="1" parent="1">
          <mxGeometry x="430" y="740" width="160" height="80" as="geometry" />
        </mxCell>
        <mxCell id="mokg5MB76KwbFTRGkMZ4-124" style="edgeStyle=orthogonalEdgeStyle;rounded=0;orthogonalLoop=1;jettySize=auto;html=1;" edge="1" parent="1" source="mokg5MB76KwbFTRGkMZ4-122" target="mokg5MB76KwbFTRGkMZ4-119">
          <mxGeometry relative="1" as="geometry" />
        </mxCell>
        <mxCell id="mokg5MB76KwbFTRGkMZ4-125" value="NÃO" style="edgeLabel;html=1;align=center;verticalAlign=middle;resizable=0;points=[];" vertex="1" connectable="0" parent="mokg5MB76KwbFTRGkMZ4-124">
          <mxGeometry x="-0.2212" y="3" relative="1" as="geometry">
            <mxPoint x="9" y="3" as="offset" />
          </mxGeometry>
        </mxCell>
        <mxCell id="mokg5MB76KwbFTRGkMZ4-122" value="Arquivo já existe?" style="strokeWidth=2;html=1;shape=mxgraph.flowchart.decision;whiteSpace=wrap;fillColor=#fff2cc;strokeColor=#d6b656;" vertex="1" parent="1">
          <mxGeometry x="226" y="720" width="123.75" height="120" as="geometry" />
        </mxCell>
        <mxCell id="mokg5MB76KwbFTRGkMZ4-126" value="Storage" style="sketch=0;aspect=fixed;pointerEvents=1;shadow=0;dashed=0;html=1;labelPosition=center;verticalLabelPosition=bottom;verticalAlign=top;align=center;shape=mxgraph.mscae.enterprise.folder;fillColor=#e1d5e7;strokeColor=#9673a6;" vertex="1" parent="1">
          <mxGeometry x="678.5999999999999" y="745" width="81.4" height="70" as="geometry" />
        </mxCell>
      </root>
    </mxGraphModel>
  </diagram>
</mxfile>
